# xmcd
#
# Track frame offsets:
#	150
#	13227
#	36822
#	49780
#	61749
#	82230
#	93842
#	108208
#	127186
#	146868
#	165091
#	184075
#	209456
#	217328
#	231020
#	251217
#	273266
#
# Disc length: 4195 seconds
#
# Revision: 1
# Processed by: cddbd v1.5.1PL0 Copyright (c) Steve Scherf et al.
# Submitted via: audiograbber 1.82.02
#
DISCID=f9106111
DTITLE=Rob Halverson - Little Whirled Of Sound
DYEAR=2000
DGENRE=Blues
TTITLE0=Ain't Nobody's Burden
TTITLE1=She Cares
TTITLE2=Queen Marlene
TTITLE3=Kewaunee
TTITLE4=Don't Say When
TTITLE5=Post Depression Rag
TTITLE6=I Love The Opera
TTITLE7=Light On You
TTITLE8=Sailing On
TTITLE9=Can You See That Angel
TTITLE10=Mastheads
TTITLE11=Ride The Moon
TTITLE12=Wordy Blues
TTITLE13=Elephant Butt
TTITLE14=I'm Coming Home
TTITLE15=Nacoma
TTITLE16=Water
EXTD=
EXTT0=
EXTT1=
EXTT2=
EXTT3=
EXTT4=
EXTT5=
EXTT6=
EXTT7=
EXTT8=
EXTT9=
EXTT10=
EXTT11=
EXTT12=
EXTT13=
EXTT14=
EXTT15=
EXTT16=
PLAYORDER=
